<svg id="圖層_1" data-name="圖層 1" xmlns="http://www.w3.org/2000/svg" viewBox="0 0 197.04 196.9"><defs><style>.cls-1{fill:#3b88d5;}.cls-2{fill:#b6e4fb;}.cls-3{fill:#3d90e4;}.cls-4{fill:#a7d393;}.cls-5{fill:#a2cd74;}.cls-6{fill:#9ac16f;}.cls-7{fill:#bbd86f;}.cls-8{fill:#1a7de0;}.cls-9{fill:#1873ce;}.cls-10{fill:#a9e0f9;}.cls-11{fill:#91c45a;}.cls-12{fill:#97cc80;}.cls-13{fill:#86b554;}.cls-14{fill:#aed054;}.cls-15{fill:#ccda4e;}</style></defs><title>Earth</title><path class="cls-1" d="M184.18,151.44a90.08,90.08,0,0,1-23.93,27.15c-14.93,11.49-31.8,18.48-50.49,20.1-27.34,2.35-51.95-5-73.24-22.67a44.85,44.85,0,0,1-6.73-6.41A10.71,10.71,0,0,1,34,170.77a67.81,67.81,0,0,0,11.67,3.49l1.74.6a72,72,0,0,0,17.39,9.95c14.74,5.94,30,8.43,45.87,6.42A89.73,89.73,0,0,0,137.18,184a91.77,91.77,0,0,0,37.28-30.82c1.53-2.18,3.53-4.17,4-7Z" transform="translate(-1.51 -2.21)"/><path class="cls-2" d="M28.05,34.42C46.76,14,70.21,3.81,97.66,2.36l.09,7c-5.18-.24-10.19.92-15.25,1.75-12.91,2.12-24.34,7.63-35,14.89-6.06,4.11-11.05,9.44-16.39,14.37C28.84,39,28.12,36.86,28.05,34.42Z" transform="translate(-1.51 -2.21)"/><path class="cls-3" d="M45.63,174.26A67.81,67.81,0,0,1,34,170.77a10.71,10.71,0,0,0-4.17-1.16l0,0-.6-.61a90.89,90.89,0,0,1-16.27-22.2A97.29,97.29,0,0,1,2.48,115.24a25.55,25.55,0,0,1-.13-2.91c.8,1.81,2,3,4.16,2.89,1.14-.06,2.3,0,3.45.08.19,1,.37,1.89.55,2.84,3.21,17.47,11.48,32.32,23.38,45.33C37.5,167.42,42,170.41,45.63,174.26Z" transform="translate(-1.51 -2.21)"/><path class="cls-4" d="M122.3,5.1a80.24,80.24,0,0,1,23.63,8.77c8.4,4.51,16.22,9.86,22.68,17l-8.42.18L157.92,31A2.55,2.55,0,0,0,156.75,29a95.12,95.12,0,0,0-20.63-12.35c-4.41-1.9-8.92-3.75-13.76-4.41l-.3-.55Z" transform="translate(-1.51 -2.21)"/><path class="cls-5" d="M10,115.3c-1.15,0-2.31-.14-3.45-.08-2.17.12-3.36-1.08-4.16-2.89l0-.1c0-1.06.11-2.13,0-3.19-.26-2.94.73-6-.66-8.83a87.73,87.73,0,0,1,4.46-29l7.31.12C9,85.68,7.22,100.22,9.92,115.12Z" transform="translate(-1.51 -2.21)"/><path class="cls-6" d="M198.19,106.39a88.49,88.49,0,0,1-10.33,38.11l-7.18-.08a5.17,5.17,0,0,1,.82-2.75,90.81,90.81,0,0,0,9.76-41.1C193.7,102.35,195.38,105,198.19,106.39Z" transform="translate(-1.51 -2.21)"/><path class="cls-6" d="M170.63,32.45c4.1,3.21,7,7.51,9.93,11.67a88.23,88.23,0,0,1,13.3,27.11l-7.31.2-.56-.2a8,8,0,0,0-.45-2.54c-2.52-7.28-6.42-13.81-10.68-20.16l-1.76-2.91c-.1-3.81-1.6-7.27-2.8-10.79C170,33.92,169.31,33.08,170.63,32.45Z" transform="translate(-1.51 -2.21)"/><path class="cls-1" d="M186.55,71.43l7.31-.2c2.25,4.8,2.83,10,3.67,15.16a77.85,77.85,0,0,1,.66,20c-2.81-1.35-4.49-4-6.93-5.82l-.63-1.11c.89-.76.6-1.8.58-2.73C191,88,189,79.7,186.55,71.43Z" transform="translate(-1.51 -2.21)"/><path class="cls-7" d="M13.44,71.35l-7.31-.12a85.68,85.68,0,0,1,8.76-20.09c.47-.8.81-1.8,1.89-2.08l8.34,0a5.4,5.4,0,0,1,0,.56c-2.83,1.13-3.39,4.06-4.66,6.29C17.74,60.8,14.75,65.6,14,71.32A5.44,5.44,0,0,0,13.44,71.35Z" transform="translate(-1.51 -2.21)"/><path class="cls-3" d="M122.3,5.1l-.24,6.63a14.79,14.79,0,0,1-2.31-.18A76.06,76.06,0,0,0,98.23,9.38l-.48-.07-.09-7a85.92,85.92,0,0,1,22.9,1.79A2.68,2.68,0,0,1,122.3,5.1Z" transform="translate(-1.51 -2.21)"/><path class="cls-4" d="M25.12,49.11l-8.34,0c3.08-5.4,6.5-10.54,11.27-14.64.07,2.44.79,4.55,3,5.9,0,.15,0,.31,0,.47C29.1,43.58,26.32,45.78,25.12,49.11Z" transform="translate(-1.51 -2.21)"/><path class="cls-5" d="M170.63,32.45c-1.32.63-.64,1.47-.33,2.38,1.2,3.52,2.7,7,2.8,10.79a140,140,0,0,0-11.55-12.43,3.28,3.28,0,0,1-1.36-2.14l8.42-.18C169.61,31,170.42,31.33,170.63,32.45Z" transform="translate(-1.51 -2.21)"/><path class="cls-5" d="M180.67,144.42l7.19.08c-.63,2.63-2.22,4.75-3.68,6.94l-5.75-5.26a3.58,3.58,0,0,1-.09-.45C178.48,144.16,179.72,144.54,180.67,144.42Z" transform="translate(-1.51 -2.21)"/><path class="cls-3" d="M1.67,100.21c1.39,2.85.4,5.89.66,8.83.09,1.06,0,2.13,0,3.19A41.44,41.44,0,0,1,1.67,100.21Z" transform="translate(-1.51 -2.21)"/><path class="cls-1" d="M29.21,169l.6.61Z" transform="translate(-1.51 -2.21)"/><path class="cls-8" d="M98.23,9.38a76.06,76.06,0,0,1,21.52,2.17,14.79,14.79,0,0,0,2.31.18l.3.55c2,3.8,5.65,6.06,8.33,9.22A6.3,6.3,0,0,0,136.3,24c2.66-.2,3.88,1.34,4,3.87.07,1.06.1,2.13.15,3.19,0,2.53,0,5.07,0,7.6,0,2.91-.06,5.81-.13,8.72a5,5,0,0,0,1.78,3.8c5.79,5.73,11.35,11.69,17.34,17.21,4.24,3.9,7,8.19,6.65,14.11-1,6.34,2.53,10.43,7,14l.66,1.14a1.75,1.75,0,0,0-.68,1.21,96.74,96.74,0,0,1-10.54,25.44c-6.9,11.73-15.41,22.09-26.29,30.38-10.42,7.94-21.68,14.28-34.35,17.93a102.18,102.18,0,0,1-21.31,4.2,108,108,0,0,1-19.45,0c-4.61-.51-9.18-1.27-13.77-1.92l-1.74-.6c-3.68-3.85-8.13-6.84-11.74-10.79-11.9-13-20.17-27.86-23.38-45.33-.18-1-.36-1.89-.55-2.84l0-.18c2.21.44,3.75-.58,5.5-1.89,4.49-3.37,6.44-7.57,5.58-13.12a17.61,17.61,0,0,1,0-2.62c0-1.9.43-3.47,2.61-3.92,3.64-.75,6.82,0,7.68,2,.65,1.48.24,3.08.32,4.62.13,2.54,1.33,4,4,4.08,2.24,0,4.48,0,6.71,0,2.73-.06,4.07-1.53,4.08-4.24,0-1.46,0-2.92,0-4.38a13.24,13.24,0,0,1,4.37-10.39c2.42-2.25,4.68-4.69,7-7a9.69,9.69,0,0,0,3.11-7c.05-3.3,0-6.62.14-9.92.18-3.53,1.62-4.62,5.65-4.56,3.58,0,5.14,1.43,5.26,4.76.06,1.85,0,3.7,0,5.55,0,3.11,1.14,4.23,4.16,4.3q1.17,0,2.34,0C81.67,71.28,83,70,83,66.69c0-3.5.14-7,0-10.51a6.57,6.57,0,0,1,2.26-5.38C89.87,46.21,94.4,41.52,99,36.87c2.34-2.29,4.57-4.7,7-6.86a7.23,7.23,0,0,0,2.63-7.2c.27-2.19-1.09-3.6-2.42-5C103.58,15,100.53,12.51,98.23,9.38ZM35.28,152c-.05,2-.23,4.06-.14,6.08.15,3.23,1.59,4.18,4.73,4.66,5.57.84,9.18-1.85,12.22-5.94,4.19-2.83,12.28-1.67,15.85,2.27,3.51,4.78,7.38,8.5,14.17,7.5,6.16-.91,10.69-4,11.4-9,1.2-8.54,0-16.45-6.88-22.56-2.64-3-4.4-6.3-3.78-10.54.29-1.94.18-4.13-2-5a8.81,8.81,0,0,0-7.36.13,3.09,3.09,0,0,0-1.6,2.93c0,1,0,2,0,2.92,0,2.32-.82,4.12-3.31,4.35s-3.78-1.29-4-3.64c-.21-1.77-1.09-3.1-2.78-3.3-5.45-.66-11-1.13-15.35,3.25-12,12.14-11.18,8.84-11.17,25.37C35.24,151.6,35.27,151.79,35.28,152Z" transform="translate(-1.51 -2.21)"/><path class="cls-9" d="M47.37,174.86c4.59.65,9.16,1.41,13.77,1.92a108,108,0,0,0,19.45,0,102.18,102.18,0,0,0,21.31-4.2c12.67-3.65,23.93-10,34.35-17.93,10.88-8.29,19.39-18.65,26.29-30.38a96.74,96.74,0,0,0,10.54-25.44,1.75,1.75,0,0,1,.68-1.21c1.69,1.61,3.41,3.18,5,4.84,2.46,2.5,2.6,4.34.53,7.16-2.47,3.37-5.07,6.65-7.52,10-4,5.46-1.84,11.57-1.71,17.45,0,.49.58,1,1,1.42,2.41,2.41,4.84,4.79,7.26,7.18a3.58,3.58,0,0,0,.09.45c-.44,2.83-2.44,4.82-4,7A91.77,91.77,0,0,1,137.18,184a89.73,89.73,0,0,1-26.55,7.23c-15.87,2-31.13-.48-45.87-6.42A72,72,0,0,1,47.37,174.86Z" transform="translate(-1.51 -2.21)"/><path class="cls-10" d="M98.23,9.38c2.3,3.13,5.35,5.57,8,8.4,1.33,1.43,2.69,2.84,2.42,5C107.77,24.3,106.31,24,105,24c-12.15,0-24.3.05-36.45,0a8.87,8.87,0,0,0-7,2.92c-3.89,4.07-7.95,8-11.93,12-1.4,1.41-2.93,2.85-4.89,3-4.59.28-9.29,1.22-13.71-1,0-.16,0-.32,0-.47C36.4,35.39,41.39,30.06,47.45,26,58.16,18.69,69.59,13.18,82.5,11.06c5.06-.83,10.07-2,15.25-1.75Z" transform="translate(-1.51 -2.21)"/><path class="cls-11" d="M173.1,96.5c-4.46-3.62-8-7.71-7-14,4.77-.85,7-3.38,7-8s0-9.33,0-14a8.36,8.36,0,0,0-.83-3.64c-1.9-4.12-5.69-6.56-8.63-9.74-1.47-1.58-2.88-3-3.31-5.28s-2-3.27-4.44-3.22c-5.14.11-10.29,0-15.44,0,0-2.53,0-5.07,0-7.6L157.92,31l2.27.09a3.28,3.28,0,0,0,1.36,2.14A140,140,0,0,1,173.1,45.62l1.76,2.91c-1,2.82.39,5.47.79,8.12a105,105,0,0,1-.46,32.44C174.8,91.57,175,94.37,173.1,96.5Z" transform="translate(-1.51 -2.21)"/><path class="cls-12" d="M157.92,31,140.49,31c-.05-1.06-.08-2.13-.15-3.19-.16-2.53-1.38-4.07-4-3.87a6.3,6.3,0,0,1-5.61-2.45c-2.68-3.16-6.36-5.42-8.33-9.22,4.84.66,9.35,2.51,13.76,4.41A95.12,95.12,0,0,1,156.75,29,2.55,2.55,0,0,1,157.92,31Z" transform="translate(-1.51 -2.21)"/><path class="cls-11" d="M99,36.87c-4.56,4.65-9.09,9.34-13.72,13.93A6.57,6.57,0,0,0,83,56.18c.18,3.5.08,7,0,10.51,0,3.3-1.35,4.59-4.59,4.65q-1.17,0-2.34,0c-3-.07-4.11-1.19-4.16-4.3,0-1.85,0-3.7,0-5.55-.12-3.33-1.68-4.72-5.26-4.76-4-.06-5.47,1-5.65,4.56-.16,3.3-.09,6.62-.14,9.92a9.69,9.69,0,0,1-3.11,7c-2.36,2.31-4.62,4.75-7,7A13.24,13.24,0,0,0,46.35,95.6c0,1.46,0,2.92,0,4.38,0,2.71-1.35,4.18-4.08,4.24-2.23,0-4.47,0-6.71,0-2.63-.06-3.83-1.54-4-4.08-.08-1.54.33-3.14-.32-4.62-.86-1.94-4-2.7-7.68-2-2.18.45-2.63,2-2.61,3.92a17.61,17.61,0,0,0,0,2.62c.86,5.55-1.09,9.75-5.58,13.12-1.75,1.31-3.29,2.33-5.5,1.89-2.7-14.9-.9-29.44,3.52-43.77a5.44,5.44,0,0,1,.57,0,8.28,8.28,0,0,0,4.49-1.69c2.88-1.94,4.66-4.9,7.17-7.13,2.86-2.55,4.66-5.35,4.17-9.3,5.65,0,11.3-.17,16.93.06,4.76.2,8.44-1.64,11.63-4.93,2.78-2.86,5.61-5.67,8.46-8.46a9.66,9.66,0,0,1,7-3C82.23,36.89,90.59,36.86,99,36.87Z" transform="translate(-1.51 -2.21)"/><path class="cls-13" d="M173.1,96.5c1.87-2.13,1.7-4.93,2.09-7.41a105,105,0,0,0,.46-32.44c-.4-2.65-1.8-5.3-.79-8.12,4.26,6.35,8.16,12.88,10.68,20.16a8,8,0,0,1,.45,2.54c-4.59.35-5.34,1.14-5.35,5.7,0,3.4,0,6.8,0,10.2a5.17,5.17,0,0,0,1.49,4c2.82,2.8,5.67,5.58,8.51,8.36l.63,1.11a90.81,90.81,0,0,1-9.76,41.1,5.17,5.17,0,0,0-.82,2.75c-1,.12-2.2-.26-2.34,1.31-2.42-2.39-4.85-4.77-7.26-7.18-.4-.41-1-.93-1-1.42-.13-5.88-2.25-12,1.71-17.45,2.45-3.39,5.05-6.67,7.52-10,2.07-2.82,1.93-4.66-.53-7.16-1.63-1.66-3.35-3.23-5-4.84Z" transform="translate(-1.51 -2.21)"/><path class="cls-9" d="M190.63,99.46c-2.84-2.78-5.69-5.56-8.51-8.36a5.17,5.17,0,0,1-1.49-4c.05-3.4,0-6.8,0-10.2,0-4.56.76-5.35,5.35-5.7l.56.2C189,79.7,191,88,191.21,96.73,191.23,97.66,191.52,98.7,190.63,99.46Z" transform="translate(-1.51 -2.21)"/><path class="cls-12" d="M99,36.87c-8.37,0-16.73,0-25.1,0a9.66,9.66,0,0,0-7,3c-2.85,2.79-5.68,5.6-8.46,8.46-3.19,3.29-6.87,5.13-11.63,4.93-5.63-.23-11.28-.06-16.93-.06-.21-3-2.13-3.67-4.69-3.53a5.4,5.4,0,0,0,0-.56c1.2-3.33,4-5.53,5.93-8.32,4.42,2.26,9.12,1.32,13.71,1,2-.12,3.49-1.56,4.89-3,4-4,8-7.9,11.93-12a8.87,8.87,0,0,1,7-2.92c12.15.07,24.3,0,36.45,0,1.32,0,2.78.31,3.63-1.18A7.23,7.23,0,0,1,106,30C103.53,32.17,101.3,34.58,99,36.87Z" transform="translate(-1.51 -2.21)"/><path class="cls-14" d="M25.15,49.67c2.56-.14,4.48.56,4.69,3.53.49,3.95-1.31,6.75-4.17,9.3-2.51,2.23-4.29,5.19-7.17,7.13A8.28,8.28,0,0,1,14,71.32C14.75,65.6,17.74,60.8,20.49,56,21.76,53.73,22.32,50.8,25.15,49.67Z" transform="translate(-1.51 -2.21)"/><path class="cls-15" d="M67.94,159.05c-3.57-3.94-11.66-5.1-15.85-2.27-.44-.18-1.08-.22-1.29-.54-3-4.64-7.62-4.55-12.33-4.23-1.06.07-2.13,0-3.19,0,0-.19,0-.38,0-.58,0-16.53-.85-13.23,11.17-25.37,4.35-4.38,9.9-3.91,15.35-3.25,1.69.2,2.57,1.53,2.78,3.3.26,2.35,1.56,3.87,4,3.64s3.34-2,3.31-4.35c0-1,0-2,0-2.92a3.09,3.09,0,0,1,1.6-2.93,8.81,8.81,0,0,1,7.36-.13c2.16.92,2.27,3.11,2,5C82.23,128.68,84,132,86.63,135c0,4.06-.26,8.14,0,12.18.2,3.3-1,5.55-3.24,7.93-2.8,3-5.8,4.54-9.92,4A44,44,0,0,0,67.94,159.05Z" transform="translate(-1.51 -2.21)"/><path class="cls-14" d="M140.47,38.61c5.15,0,10.3.06,15.44,0,2.42-.05,4,.87,4.44,3.22s1.84,3.7,3.31,5.28c2.94,3.18,6.73,5.62,8.63,9.74a8.36,8.36,0,0,1,.83,3.64c0,4.66,0,9.32,0,14s-2.22,7.17-7,8c.34-5.92-2.41-10.21-6.65-14.11-6-5.52-11.55-11.48-17.34-17.21a5,5,0,0,1-1.78-3.8C140.41,44.42,140.43,41.52,140.47,38.61Z" transform="translate(-1.51 -2.21)"/><path class="cls-11" d="M67.94,159.05a44,44,0,0,1,5.51,0c4.12.53,7.12-1,9.92-4,2.19-2.38,3.44-4.63,3.24-7.93-.24-4,0-8.12,0-12.18,6.93,6.11,8.08,14,6.88,22.56-.71,5.06-5.24,8.1-11.4,9C75.32,167.55,71.45,163.83,67.94,159.05Z" transform="translate(-1.51 -2.21)"/><path class="cls-11" d="M35.28,152c1.06,0,2.13.1,3.19,0,4.71-.32,9.31-.41,12.33,4.23.21.32.85.36,1.29.54-3,4.09-6.65,6.78-12.22,5.94-3.14-.48-4.58-1.43-4.73-4.66C35.05,156,35.23,154,35.28,152Z" transform="translate(-1.51 -2.21)"/></svg>